<mxfile host="app.diagrams.net" modified="2024-06-09T15:07:46.391Z" agent="Mozilla/5.0 (Windows NT 10.0; Win64; x64) AppleWebKit/537.36 (KHTML, like Gecko) Chrome/124.0.0.0 Safari/537.36" etag="eMGeCIHWFb-mS-lF35zL" version="24.5.2" type="github">
  <diagram id="C5RBs43oDa-KdzZeNtuy" name="Page-1">
    <mxGraphModel dx="1179" dy="187" grid="1" gridSize="10" guides="1" tooltips="1" connect="1" arrows="1" fold="1" page="1" pageScale="1" pageWidth="827" pageHeight="1169" math="0" shadow="0">
      <root>
        <mxCell id="WIyWlLk6GJQsqaUBKTNV-0" />
        <mxCell id="WIyWlLk6GJQsqaUBKTNV-1" parent="WIyWlLk6GJQsqaUBKTNV-0" />
        <mxCell id="aEcpb6OMDiBvzpBhtqqO-0" value="" style="rounded=0;html=1;jettySize=auto;orthogonalLoop=1;fontSize=11;endArrow=block;endFill=0;endSize=8;strokeWidth=1;shadow=0;labelBackgroundColor=none;edgeStyle=orthogonalEdgeStyle;entryX=0.5;entryY=0;entryDx=0;entryDy=0;" parent="WIyWlLk6GJQsqaUBKTNV-1" edge="1" target="aEcpb6OMDiBvzpBhtqqO-18">
          <mxGeometry relative="1" as="geometry">
            <mxPoint x="359.17" y="280" as="sourcePoint" />
            <mxPoint x="359.17" y="330" as="targetPoint" />
          </mxGeometry>
        </mxCell>
        <mxCell id="aEcpb6OMDiBvzpBhtqqO-1" value="Bắt đầu" style="ellipse;whiteSpace=wrap;html=1;" parent="WIyWlLk6GJQsqaUBKTNV-1" vertex="1">
          <mxGeometry x="310" y="210" width="100" height="70" as="geometry" />
        </mxCell>
        <mxCell id="aEcpb6OMDiBvzpBhtqqO-22" style="edgeStyle=orthogonalEdgeStyle;rounded=0;orthogonalLoop=1;jettySize=auto;html=1;exitX=0.5;exitY=1;exitDx=0;exitDy=0;" parent="WIyWlLk6GJQsqaUBKTNV-1" source="aEcpb6OMDiBvzpBhtqqO-2" edge="1">
          <mxGeometry relative="1" as="geometry">
            <mxPoint x="360" y="620" as="targetPoint" />
          </mxGeometry>
        </mxCell>
        <mxCell id="aEcpb6OMDiBvzpBhtqqO-2" value="Kiểm tra có nhận dữ liệu từ ESP32 ?" style="rhombus;whiteSpace=wrap;html=1;" parent="WIyWlLk6GJQsqaUBKTNV-1" vertex="1">
          <mxGeometry x="240" y="480" width="240" height="80" as="geometry" />
        </mxCell>
        <mxCell id="aEcpb6OMDiBvzpBhtqqO-3" value="" style="endArrow=classic;html=1;rounded=0;exitX=0;exitY=0.5;exitDx=0;exitDy=0;entryX=1;entryY=0.5;entryDx=0;entryDy=0;" parent="WIyWlLk6GJQsqaUBKTNV-1" source="aEcpb6OMDiBvzpBhtqqO-2" target="aEcpb6OMDiBvzpBhtqqO-20" edge="1">
          <mxGeometry width="50" height="50" relative="1" as="geometry">
            <mxPoint x="490" y="740" as="sourcePoint" />
            <mxPoint x="190" y="520" as="targetPoint" />
          </mxGeometry>
        </mxCell>
        <mxCell id="aEcpb6OMDiBvzpBhtqqO-4" value="Đúng" style="text;html=1;align=center;verticalAlign=middle;whiteSpace=wrap;rounded=0;" parent="WIyWlLk6GJQsqaUBKTNV-1" vertex="1">
          <mxGeometry x="190" y="490" width="60" height="30" as="geometry" />
        </mxCell>
        <mxCell id="aEcpb6OMDiBvzpBhtqqO-6" value="Sai" style="text;html=1;align=center;verticalAlign=middle;whiteSpace=wrap;rounded=0;" parent="WIyWlLk6GJQsqaUBKTNV-1" vertex="1">
          <mxGeometry x="360" y="580" width="60" height="30" as="geometry" />
        </mxCell>
        <mxCell id="aEcpb6OMDiBvzpBhtqqO-11" value="Sai" style="text;html=1;align=center;verticalAlign=middle;whiteSpace=wrap;rounded=0;" parent="WIyWlLk6GJQsqaUBKTNV-1" vertex="1">
          <mxGeometry x="-60" y="490" width="60" height="30" as="geometry" />
        </mxCell>
        <mxCell id="aEcpb6OMDiBvzpBhtqqO-16" value="" style="endArrow=classic;html=1;rounded=0;exitX=0.5;exitY=1;exitDx=0;exitDy=0;entryX=0.5;entryY=0;entryDx=0;entryDy=0;" parent="WIyWlLk6GJQsqaUBKTNV-1" source="VVWvHMrJEC_OictwJcj_-5" target="aEcpb6OMDiBvzpBhtqqO-17" edge="1">
          <mxGeometry width="50" height="50" relative="1" as="geometry">
            <mxPoint x="360" y="790" as="sourcePoint" />
            <mxPoint x="360" y="820" as="targetPoint" />
          </mxGeometry>
        </mxCell>
        <mxCell id="aEcpb6OMDiBvzpBhtqqO-17" value="Kết thúc" style="ellipse;whiteSpace=wrap;html=1;" parent="WIyWlLk6GJQsqaUBKTNV-1" vertex="1">
          <mxGeometry x="310" y="860" width="100" height="70" as="geometry" />
        </mxCell>
        <mxCell id="aEcpb6OMDiBvzpBhtqqO-19" style="edgeStyle=orthogonalEdgeStyle;rounded=0;orthogonalLoop=1;jettySize=auto;html=1;exitX=0.5;exitY=1;exitDx=0;exitDy=0;entryX=0.5;entryY=0;entryDx=0;entryDy=0;" parent="WIyWlLk6GJQsqaUBKTNV-1" source="aEcpb6OMDiBvzpBhtqqO-18" target="aEcpb6OMDiBvzpBhtqqO-2" edge="1">
          <mxGeometry relative="1" as="geometry" />
        </mxCell>
        <mxCell id="aEcpb6OMDiBvzpBhtqqO-18" value="Cấu hình cho hệ thống" style="rounded=0;whiteSpace=wrap;html=1;" parent="WIyWlLk6GJQsqaUBKTNV-1" vertex="1">
          <mxGeometry x="300" y="350" width="120" height="60" as="geometry" />
        </mxCell>
        <mxCell id="aEcpb6OMDiBvzpBhtqqO-26" style="edgeStyle=orthogonalEdgeStyle;rounded=0;orthogonalLoop=1;jettySize=auto;html=1;exitX=0.5;exitY=1;exitDx=0;exitDy=0;entryX=0.5;entryY=0;entryDx=0;entryDy=0;" parent="WIyWlLk6GJQsqaUBKTNV-1" source="aEcpb6OMDiBvzpBhtqqO-20" target="aEcpb6OMDiBvzpBhtqqO-25" edge="1">
          <mxGeometry relative="1" as="geometry" />
        </mxCell>
        <mxCell id="VVWvHMrJEC_OictwJcj_-3" style="edgeStyle=orthogonalEdgeStyle;rounded=0;orthogonalLoop=1;jettySize=auto;html=1;" edge="1" parent="WIyWlLk6GJQsqaUBKTNV-1" source="aEcpb6OMDiBvzpBhtqqO-20">
          <mxGeometry relative="1" as="geometry">
            <mxPoint x="360" y="440" as="targetPoint" />
            <Array as="points">
              <mxPoint x="-80" y="520" />
              <mxPoint x="-80" y="440" />
            </Array>
          </mxGeometry>
        </mxCell>
        <mxCell id="aEcpb6OMDiBvzpBhtqqO-20" value="So sánh ký tự từ ESP32 ?" style="rhombus;whiteSpace=wrap;html=1;" parent="WIyWlLk6GJQsqaUBKTNV-1" vertex="1">
          <mxGeometry y="480" width="180" height="80" as="geometry" />
        </mxCell>
        <mxCell id="aEcpb6OMDiBvzpBhtqqO-34" style="edgeStyle=orthogonalEdgeStyle;rounded=0;orthogonalLoop=1;jettySize=auto;html=1;exitX=0.5;exitY=1;exitDx=0;exitDy=0;" parent="WIyWlLk6GJQsqaUBKTNV-1" source="aEcpb6OMDiBvzpBhtqqO-25" edge="1">
          <mxGeometry relative="1" as="geometry">
            <mxPoint x="360" y="820" as="targetPoint" />
            <mxPoint x="120" y="770" as="sourcePoint" />
            <Array as="points">
              <mxPoint x="90" y="820" />
            </Array>
          </mxGeometry>
        </mxCell>
        <mxCell id="aEcpb6OMDiBvzpBhtqqO-25" value="Xuất ra 1 giá trị tương ứng để điều khiển thiết bị" style="rounded=0;whiteSpace=wrap;html=1;" parent="WIyWlLk6GJQsqaUBKTNV-1" vertex="1">
          <mxGeometry x="30" y="710" width="120" height="60" as="geometry" />
        </mxCell>
        <mxCell id="aEcpb6OMDiBvzpBhtqqO-29" value="Đúng" style="text;html=1;align=center;verticalAlign=middle;whiteSpace=wrap;rounded=0;" parent="WIyWlLk6GJQsqaUBKTNV-1" vertex="1">
          <mxGeometry x="110" y="615" width="60" height="30" as="geometry" />
        </mxCell>
        <mxCell id="VVWvHMrJEC_OictwJcj_-6" value="" style="edgeStyle=orthogonalEdgeStyle;rounded=0;orthogonalLoop=1;jettySize=auto;html=1;" edge="1" parent="WIyWlLk6GJQsqaUBKTNV-1" source="VVWvHMrJEC_OictwJcj_-4" target="VVWvHMrJEC_OictwJcj_-5">
          <mxGeometry relative="1" as="geometry" />
        </mxCell>
        <mxCell id="VVWvHMrJEC_OictwJcj_-4" value="Thực hiện chức năng cảnh báo cháy" style="rounded=0;whiteSpace=wrap;html=1;" vertex="1" parent="WIyWlLk6GJQsqaUBKTNV-1">
          <mxGeometry x="300" y="620" width="120" height="60" as="geometry" />
        </mxCell>
        <mxCell id="VVWvHMrJEC_OictwJcj_-5" value="Thực hiện chức năng cảnh báo khói" style="rounded=0;whiteSpace=wrap;html=1;" vertex="1" parent="WIyWlLk6GJQsqaUBKTNV-1">
          <mxGeometry x="300" y="720" width="120" height="60" as="geometry" />
        </mxCell>
      </root>
    </mxGraphModel>
  </diagram>
</mxfile>
